<svg width="21" height="20" viewBox="0 0 21 20" fill="none" xmlns="http://www.w3.org/2000/svg">
<g clip-path="url(#clip0_50_12)">
<path d="M8.68413 1.36291L2.16397 6.58468C1.43009 7.16802 0.959664 8.40054 1.11961 9.32259L2.37095 16.8118C2.59676 18.1479 3.87633 19.2298 5.23117 19.2298H15.7688C17.1142 19.2298 18.4032 18.1384 18.629 16.8118L19.8804 9.32259C20.0309 8.40054 19.5605 7.16802 18.836 6.58468L12.3158 1.37232C11.3091 0.563179 9.68144 0.563179 8.68413 1.36291V1.36291Z" stroke="#068CB7" stroke-width="1.5" stroke-linecap="round" stroke-linejoin="round"/>
<path d="M10.5 13.293C11.1238 13.293 11.7221 13.0452 12.1632 12.6041C12.6043 12.163 12.8521 11.5647 12.8521 10.9409C12.8521 10.317 12.6043 9.71876 12.1632 9.27764C11.7221 8.83653 11.1238 8.58871 10.5 8.58871C9.87615 8.58871 9.27787 8.83653 8.83676 9.27764C8.39564 9.71876 8.14783 10.317 8.14783 10.9409C8.14783 11.5647 8.39564 12.163 8.83676 12.6041C9.27787 13.0452 9.87615 13.293 10.5 13.293Z" stroke="#068CB7" stroke-width="1.5" stroke-linecap="round" stroke-linejoin="round"/>
</g>
<defs>
<clipPath id="clip0_50_12">
<rect width="20" height="20" fill="white" transform="translate(0.5)"/>
</clipPath>
</defs>
</svg>
