<svg width="23" height="22" viewBox="0 0 23 22" fill="none" xmlns="http://www.w3.org/2000/svg">
<path d="M7.86225 1.76391V16.7632M15.1377 4.78684V20.2246M1.5 6.12524V17.3516C1.5 19.5438 2.86986 20.4438 4.53399 19.3592L6.91857 17.8131C7.43607 17.4785 8.29858 17.4439 8.83638 17.7554L14.1636 20.7899C14.7014 21.0899 15.5639 21.0668 16.0814 20.7322L20.4751 17.8708C21.0332 17.5016 21.5 16.6017 21.5 15.8632V4.63685C21.5 2.44464 20.1301 1.54469 18.466 2.62925L16.0814 4.17533C15.5639 4.50993 14.7014 4.54454 14.1636 4.23302L8.83638 1.21009C8.29858 0.910102 7.43607 0.933178 6.91857 1.26778L2.52486 4.12918C1.95662 4.49839 1.5 5.39835 1.5 6.12524V6.12524Z" stroke="black" stroke-opacity="0.3" stroke-width="1.5" stroke-linecap="round" stroke-linejoin="round"/>
</svg>
