<svg width="16" height="16" viewBox="0 0 16 16" fill="none" xmlns="http://www.w3.org/2000/svg">
<path d="M13.2489 9.91761C14.7689 9.91761 16 11.2793 16 12.9593C16 14.6383 14.7689 16 13.2489 16C11.7298 16 10.4978 14.6383 10.4978 12.9593C10.4978 11.2793 11.7298 9.91761 13.2489 9.91761ZM6.46663 11.6622C7.1324 11.6622 7.67285 12.2595 7.67285 12.9954C7.67285 13.7302 7.1324 14.3285 6.46663 14.3285H1.20622C0.540441 14.3285 0 13.7302 0 12.9954C0 12.2595 0.540441 11.6622 1.20622 11.6622H6.46663ZM2.7511 0C4.27109 0 5.50219 1.36169 5.50219 3.0407C5.50219 4.72071 4.27109 6.08239 2.7511 6.08239C1.23199 6.08239 0 4.72071 0 3.0407C0 1.36169 1.23199 0 2.7511 0ZM14.7947 1.70849C15.4596 1.70849 16 2.30583 16 3.0407C16 3.77656 15.4596 4.3739 14.7947 4.3739H9.53426C8.86848 4.3739 8.32804 3.77656 8.32804 3.0407C8.32804 2.30583 8.86848 1.70849 9.53426 1.70849H14.7947Z" fill="white"/>
</svg>
