<svg width="31" height="32" viewBox="0 0 31 32" fill="none" xmlns="http://www.w3.org/2000/svg">
<path d="M30.0395 25.2312C30.0395 25.7562 29.9229 26.2958 29.675 26.8208C29.427 27.3458 29.1062 27.8417 28.6833 28.3083C27.9687 29.0958 27.1812 29.6646 26.2916 30.0292C25.4166 30.3937 24.4687 30.5833 23.4479 30.5833C21.9604 30.5833 20.3708 30.2333 18.6937 29.5187C17.0166 28.8042 15.3395 27.8417 13.677 26.6312C11.9826 25.3918 10.3837 24.0269 8.89371 22.5479C7.419 21.0633 6.05885 19.4692 4.82496 17.7792C3.62913 16.1167 2.66663 14.4542 1.96663 12.8062C1.26663 11.1437 0.916626 9.55416 0.916626 8.03749C0.916626 7.04582 1.09163 6.09791 1.44163 5.22291C1.79163 4.33332 2.34579 3.51666 3.11871 2.78749C4.05204 1.86874 5.07288 1.41666 6.15204 1.41666C6.56038 1.41666 6.96871 1.50416 7.33329 1.67916C7.71246 1.85416 8.04788 2.11666 8.31038 2.49582L11.6937 7.26457C11.9562 7.62916 12.1458 7.96457 12.277 8.28541C12.4083 8.59166 12.4812 8.89791 12.4812 9.17499C12.4812 9.52499 12.3791 9.87499 12.175 10.2104C11.9854 10.5458 11.7083 10.8958 11.3583 11.2458L10.25 12.3979C10.0895 12.5583 10.0166 12.7479 10.0166 12.9812C10.0166 13.0979 10.0312 13.2 10.0604 13.3167C10.1041 13.4333 10.1479 13.5208 10.177 13.6083C10.4395 14.0896 10.8916 14.7167 11.5333 15.475C12.1895 16.2333 12.8895 17.0062 13.6479 17.7792C14.4354 18.5521 15.1937 19.2667 15.9666 19.9229C16.725 20.5646 17.352 21.0021 17.8479 21.2646C17.9208 21.2937 18.0083 21.3375 18.1104 21.3812C18.227 21.425 18.3437 21.4396 18.475 21.4396C18.7229 21.4396 18.9125 21.3521 19.0729 21.1917L20.1812 20.0979C20.5458 19.7333 20.8958 19.4562 21.2312 19.2812C21.5666 19.0771 21.902 18.975 22.2666 18.975C22.5437 18.975 22.8354 19.0333 23.1562 19.1646C23.477 19.2958 23.8125 19.4854 24.177 19.7333L29.0041 23.1604C29.3833 23.4229 29.6458 23.7292 29.8062 24.0937C29.952 24.4583 30.0395 24.8229 30.0395 25.2312V25.2312Z" stroke="black" stroke-width="1.5" stroke-miterlimit="10"/>
</svg>
